<svg data-v-fde0c5aa="" xmlns="http://www.w3.org/2000/svg" viewBox="0 0 300 300" class="iconLeftSlogan"><!----><defs data-v-fde0c5aa=""><linearGradient data-v-fde0c5aa="" gradientTransform="rotate(25)" id="958461f9-0244-41ab-8b6d-2f906609c944" x1="0%" y1="0%" x2="100%" y2="0%"><stop data-v-fde0c5aa="" offset="0%" stop-color="#30223A" stop-opacity="1"></stop><stop data-v-fde0c5aa="" offset="100%" stop-color="#F13800" stop-opacity="1"></stop></linearGradient></defs><rect data-v-fde0c5aa="" fill="url(#958461f9-0244-41ab-8b6d-2f906609c944)" x="0" y="0" width="300px" height="300px" class="logo-background-square"></rect><defs data-v-fde0c5aa=""><!----></defs><g data-v-fde0c5aa="" id="799f4098-a5e2-4213-bdad-58d8e2147618" fill="#ffffff" transform="matrix(2.186910230594893,0,0,2.186910230594893,124.23660575191661,117.70444982367704)"><path d="M7.63 5.94Q7.63 6.05 7.56 6.12Q7.49 6.19 7.38 6.19L7.38 6.19L3.11 6.19Q3.01 6.19 3.01 6.29L3.01 6.29L3.01 7.95Q3.01 8.05 3.11 8.05L3.11 8.05L5.81 8.05Q5.92 8.05 5.99 8.12Q6.06 8.19 6.06 8.30L6.06 8.30L6.06 9.77Q6.06 9.88 5.99 9.95Q5.92 10.02 5.81 10.02L5.81 10.02L3.11 10.02Q3.01 10.02 3.01 10.12L3.01 10.12L3.01 13.75Q3.01 13.86 2.94 13.93Q2.87 14 2.76 14L2.76 14L0.94 14Q0.83 14 0.76 13.93Q0.69 13.86 0.69 13.75L0.69 13.75L0.69 4.45Q0.69 4.34 0.76 4.27Q0.83 4.20 0.94 4.20L0.94 4.20L7.38 4.20Q7.49 4.20 7.56 4.27Q7.63 4.34 7.63 4.45L7.63 4.45L7.63 5.94ZM9.66 6.29Q9.04 6.29 8.67 5.91Q8.29 5.54 8.29 4.94L8.29 4.94Q8.29 4.35 8.67 3.99Q9.04 3.63 9.66 3.63L9.66 3.63Q10.28 3.63 10.65 3.99Q11.03 4.35 11.03 4.94L11.03 4.94Q11.03 5.54 10.65 5.91Q10.28 6.29 9.66 6.29L9.66 6.29ZM8.75 14Q8.64 14 8.57 13.93Q8.50 13.86 8.50 13.75L8.50 13.75L8.50 7.01Q8.50 6.90 8.57 6.83Q8.64 6.76 8.75 6.76L8.75 6.76L10.57 6.76Q10.68 6.76 10.75 6.83Q10.82 6.90 10.82 7.01L10.82 7.01L10.82 13.75Q10.82 13.86 10.75 13.93Q10.68 14 10.57 14L10.57 14L8.75 14ZM16.49 7.01Q16.49 6.90 16.56 6.83Q16.63 6.76 16.74 6.76L16.74 6.76L18.56 6.76Q18.68 6.76 18.75 6.83Q18.82 6.90 18.82 7.01L18.82 7.01L18.82 13.19Q18.82 15.11 17.70 15.93Q16.59 16.76 14.91 16.76L14.91 16.76Q14.38 16.76 13.66 16.66L13.66 16.66Q13.43 16.62 13.44 16.38L13.44 16.38L13.51 14.83Q13.52 14.56 13.80 14.60L13.80 14.60Q14.36 14.71 14.78 14.71L14.78 14.71Q15.58 14.71 16.04 14.35Q16.49 13.99 16.49 13.20L16.49 13.20L16.34 13.34Q15.85 13.80 14.94 13.80L14.94 13.80Q14.01 13.80 13.24 13.40Q12.47 12.99 12.14 11.97L12.14 11.97Q11.91 11.30 11.91 10.32L11.91 10.32Q11.91 9.24 12.18 8.55L12.18 8.55Q12.50 7.69 13.21 7.17Q13.92 6.65 14.85 6.65L14.85 6.65Q15.83 6.65 16.38 7.22L16.38 7.22Q16.42 7.28 16.46 7.27Q16.49 7.25 16.49 7.18L16.49 7.18L16.49 7.01ZM16.37 11.35Q16.49 11.03 16.49 10.30L16.49 10.30Q16.49 9.93 16.46 9.71Q16.44 9.49 16.35 9.30L16.35 9.30Q16.24 8.99 15.99 8.81Q15.75 8.64 15.40 8.64L15.40 8.64Q14.74 8.64 14.46 9.30L14.46 9.30Q14.25 9.69 14.25 10.33L14.25 10.33Q14.25 11.02 14.43 11.34L14.43 11.34Q14.56 11.63 14.81 11.82Q15.06 12.00 15.41 12.00L15.41 12.00Q16.13 12.00 16.37 11.35L16.37 11.35ZM24.07 6.65Q25.16 6.65 25.85 7.34Q26.54 8.04 26.54 9.23L26.54 9.23L26.54 13.75Q26.54 13.86 26.47 13.93Q26.40 14 26.29 14L26.29 14L24.47 14Q24.36 14 24.29 13.93Q24.22 13.86 24.22 13.75L24.22 13.75L24.22 9.73Q24.22 9.24 23.96 8.94Q23.70 8.64 23.27 8.64L23.27 8.64Q22.83 8.64 22.57 8.94Q22.30 9.24 22.30 9.73L22.30 9.73L22.30 13.75Q22.30 13.86 22.23 13.93Q22.16 14 22.05 14L22.05 14L20.23 14Q20.12 14 20.05 13.93Q19.98 13.86 19.98 13.75L19.98 13.75L19.98 4.45Q19.98 4.34 20.05 4.27Q20.12 4.20 20.23 4.20L20.23 4.20L22.05 4.20Q22.16 4.20 22.23 4.27Q22.30 4.34 22.30 4.45L22.30 4.45L22.30 7.41Q22.30 7.48 22.34 7.49Q22.37 7.50 22.40 7.45L22.40 7.45Q22.97 6.65 24.07 6.65L24.07 6.65ZM32.14 8.37Q32.14 8.48 32.07 8.55Q32.00 8.62 31.89 8.62L31.89 8.62L30.73 8.62Q30.63 8.62 30.63 8.72L30.63 8.72L30.63 11.17Q30.63 11.97 31.28 11.97L31.28 11.97L31.71 11.97Q31.82 11.97 31.89 12.04Q31.96 12.11 31.96 12.22L31.96 12.22L31.96 13.69Q31.96 13.92 31.72 13.94L31.72 13.94Q31.08 13.97 30.81 13.97L30.81 13.97Q29.60 13.97 29.01 13.58Q28.42 13.19 28.41 12.12L28.41 12.12L28.41 8.72Q28.41 8.62 28.31 8.62L28.31 8.62L27.62 8.62Q27.51 8.62 27.44 8.55Q27.37 8.48 27.37 8.37L27.37 8.37L27.37 7.01Q27.37 6.90 27.44 6.83Q27.51 6.76 27.62 6.76L27.62 6.76L28.31 6.76Q28.41 6.76 28.41 6.66L28.41 6.66L28.41 5.08Q28.41 4.97 28.48 4.90Q28.55 4.83 28.66 4.83L28.66 4.83L30.38 4.83Q30.49 4.83 30.56 4.90Q30.63 4.97 30.63 5.08L30.63 5.08L30.63 6.66Q30.63 6.76 30.73 6.76L30.73 6.76L31.89 6.76Q32.00 6.76 32.07 6.83Q32.14 6.90 32.14 7.01L32.14 7.01L32.14 8.37ZM36.23 14Q36.12 14 36.05 13.93Q35.98 13.86 35.98 13.75L35.98 13.75L35.98 4.45Q35.98 4.34 36.05 4.27Q36.12 4.20 36.23 4.20L36.23 4.20L38.05 4.20Q38.16 4.20 38.23 4.27Q38.30 4.34 38.30 4.45L38.30 4.45L38.30 11.91Q38.30 12.01 38.40 12.01L38.40 12.01L42.76 12.01Q42.87 12.01 42.94 12.08Q43.01 12.15 43.01 12.26L43.01 12.26L43.01 13.75Q43.01 13.86 42.94 13.93Q42.87 14 42.76 14L42.76 14L36.23 14ZM45.18 6.29Q44.56 6.29 44.18 5.91Q43.81 5.54 43.81 4.94L43.81 4.94Q43.81 4.35 44.18 3.99Q44.56 3.63 45.18 3.63L45.18 3.63Q45.79 3.63 46.17 3.99Q46.55 4.35 46.55 4.94L46.55 4.94Q46.55 5.54 46.17 5.91Q45.79 6.29 45.18 6.29L45.18 6.29ZM44.27 14Q44.16 14 44.09 13.93Q44.02 13.86 44.02 13.75L44.02 13.75L44.02 7.01Q44.02 6.90 44.09 6.83Q44.16 6.76 44.27 6.76L44.27 6.76L46.09 6.76Q46.20 6.76 46.27 6.83Q46.34 6.90 46.34 7.01L46.34 7.01L46.34 13.75Q46.34 13.86 46.27 13.93Q46.20 14 46.09 14L46.09 14L44.27 14ZM51.70 6.65Q52.79 6.65 53.49 7.34Q54.18 8.04 54.18 9.23L54.18 9.23L54.18 13.75Q54.18 13.86 54.11 13.93Q54.04 14 53.93 14L53.93 14L52.11 14Q52.00 14 51.93 13.93Q51.86 13.86 51.86 13.75L51.86 13.75L51.86 9.73Q51.86 9.24 51.60 8.94Q51.34 8.64 50.90 8.64L50.90 8.64Q50.47 8.64 50.20 8.94Q49.94 9.24 49.94 9.73L49.94 9.73L49.94 13.75Q49.94 13.86 49.87 13.93Q49.80 14 49.69 14L49.69 14L47.87 14Q47.75 14 47.68 13.93Q47.61 13.86 47.61 13.75L47.61 13.75L47.61 7.01Q47.61 6.90 47.68 6.83Q47.75 6.76 47.87 6.76L47.87 6.76L49.69 6.76Q49.80 6.76 49.87 6.83Q49.94 6.90 49.94 7.01L49.94 7.01L49.94 7.41Q49.94 7.48 49.97 7.49Q50.01 7.50 50.04 7.45L50.04 7.45Q50.61 6.65 51.70 6.65L51.70 6.65ZM55.57 14Q55.45 14 55.38 13.93Q55.31 13.86 55.31 13.75L55.31 13.75L55.31 4.45Q55.31 4.34 55.38 4.27Q55.45 4.20 55.57 4.20L55.57 4.20L57.39 4.20Q57.50 4.20 57.57 4.27Q57.64 4.34 57.64 4.45L57.64 4.45L57.64 8.67Q57.64 8.74 57.68 8.75Q57.72 8.76 57.76 8.71L57.76 8.71L59.22 6.92Q59.33 6.76 59.53 6.76L59.53 6.76L61.60 6.76Q61.81 6.76 61.81 6.92L61.81 6.92Q61.81 7 61.75 7.07L61.75 7.07L60.02 9.31Q59.96 9.39 60.00 9.45L60.00 9.45L62.05 13.71L62.08 13.82Q62.08 14 61.85 14L61.85 14L59.96 14Q59.75 14 59.67 13.80L59.67 13.80L58.44 10.92Q58.42 10.86 58.37 10.86Q58.32 10.86 58.30 10.91L58.30 10.91L57.68 11.80Q57.64 11.84 57.64 11.93L57.64 11.93L57.64 13.75Q57.64 13.86 57.57 13.93Q57.50 14 57.39 14L57.39 14L55.57 14Z"></path></g><defs data-v-fde0c5aa=""><!----></defs><g data-v-fde0c5aa="" id="18607960-8f04-445e-a594-ff741083603d" stroke="none" fill="#ffffff" transform="matrix(1.136649457253374,0,0,1.136649457253374,28.633503259479472,103.3405428149305)"><path d="M32.6 43.2h18.8l2.8-1.4c-.2-.2-.4-.4-.6-.5l-6.3-3.1c-.3-.1-.6-.2-.9-.2h-8.9c-.3 0-.6.1-.9.2l-6.3 3.1c-.2.1-.4.3-.6.5l2.9 1.4z"></path><path d="M72.9 41.3l-.4-.2V29.2c0-1.5-.8-2.9-2.2-3.6L55.1 18c-.6-.3-1.2-.4-1.8-.4H30.7c-.6 0-1.2.1-1.8.4l-15.2 7.6c-1.4.7-2.2 2.1-2.2 3.6v11.9l-.4.2c-.7.3-1.1 1-1.1 1.8v10.8c0 .8.4 1.5 1.1 1.8l17.2 8.6c.3.1.6.2.9.2h25.6c.3 0 .6-.1.9-.2l17.2-8.6c.7-.3 1.1-1 1.1-1.8V43.1c0-.8-.4-1.5-1.1-1.8zm-4.4-12.2v8l-12.7-6.4v-8l12.7 6.4zm-53 17.2V43l12.7 6.4v8L15.5 51v-4.7zM30.7 34h22.7l12 6-12 6H30.7l-12-6 12-6zm21.1 24.5H32.2V50h19.6v8.5zM68.5 51l-12.7 6.4v-8L68.5 43v8zM51.8 21.5V30H32.2v-8.5h19.6zM15.5 34.7v-5.5l12.7-6.4v8l-12.7 6.4v-2.5z"></path></g><defs data-v-fde0c5aa=""><!----></defs><g data-v-fde0c5aa="" id="182dd7eb-fe63-4d26-b48a-7a0c44af7adf" fill="#ffffff" transform="matrix(0.2284676155885036,0,0,0.2284676155885036,125.72272717426381,163.69450968199646)"><path d="M0.10 3.44C0.10 3.68 0.18 3.70 0.35 3.70L0.76 3.70C0.88 3.70 3.14 7.74 3.54 8.50C3.60 8.60 3.64 8.65 3.64 8.81C3.64 10.50 3.63 12.18 3.50 12.18L2.79 12.18C2.56 12.18 2.52 12.19 2.52 12.39C2.52 12.63 2.53 12.68 2.73 12.68C2.93 12.68 3.74 12.64 4.33 12.64C5.15 12.64 5.68 12.68 6.01 12.68C6.17 12.68 6.20 12.61 6.20 12.40C6.20 12.24 6.17 12.18 6.01 12.18L5.04 12.18C4.94 12.18 4.91 9.72 4.91 8.22C4.91 8.18 4.91 8.15 4.96 8.09C5.50 7.22 7.45 3.70 7.52 3.70L7.99 3.70C8.16 3.70 8.26 3.68 8.26 3.44C8.26 3.22 8.18 3.19 7.99 3.19C7.77 3.19 7.53 3.23 6.93 3.23C6.34 3.23 6.01 3.19 5.84 3.19C5.64 3.19 5.60 3.25 5.60 3.49C5.60 3.68 5.67 3.70 5.89 3.70L6.62 3.70C6.64 3.70 6.65 3.71 6.65 3.74C6.65 4.05 5.08 6.99 4.70 7.71C4.59 7.92 4.59 7.88 4.48 7.67C4.07 6.89 2.79 4.56 2.49 3.85C2.44 3.71 2.42 3.70 2.60 3.70L3.43 3.70C3.65 3.70 3.68 3.68 3.68 3.49C3.68 3.25 3.64 3.19 3.49 3.19C3.25 3.19 2.63 3.23 1.83 3.23C1.02 3.23 0.53 3.19 0.35 3.19C0.17 3.19 0.10 3.21 0.10 3.44ZM15.39 8.15C15.39 11.17 17.72 12.80 19.98 12.80C22.76 12.80 24.74 10.89 24.74 8.06C24.74 5.33 22.99 3.11 20.19 3.11C17.58 3.11 15.39 5.10 15.39 8.15ZM16.79 7.77C16.79 5.64 18.07 3.58 20.05 3.58C22.29 3.58 23.37 5.81 23.37 7.94C23.37 10.08 22.26 12.32 19.99 12.32C18.00 12.32 16.79 10.28 16.79 7.77ZM32.84 3.51C32.84 3.75 32.93 3.77 33.10 3.77L33.63 3.77C33.68 3.77 33.68 4.12 33.68 4.55C33.68 5.66 33.67 8.96 33.67 9.42C33.67 11.13 33.92 12.80 36.78 12.80C37.86 12.80 39.02 12.38 39.68 12.00C39.93 11.86 40.22 11.72 40.31 11.72C40.57 11.72 40.84 12.74 41.17 12.74C41.50 12.74 41.51 12.35 41.51 12.25C41.51 11.96 41.57 10.08 41.61 8.16C41.66 6.12 41.65 3.77 41.76 3.77L42.08 3.77C42.31 3.77 42.38 3.75 42.38 3.56C42.38 3.32 42.34 3.26 42.14 3.26C42 3.26 41.47 3.30 41.05 3.30C40.63 3.30 39.83 3.26 39.61 3.26C39.42 3.26 39.33 3.28 39.33 3.51C39.33 3.75 39.44 3.77 39.61 3.77L40.31 3.77C40.38 3.77 40.39 4.30 40.39 4.87L40.39 9.14C40.39 11.19 40.39 11.12 40.05 11.34C39.66 11.61 38.85 12.08 37.67 12.08C35.70 12.08 34.90 11.17 34.90 9.41C34.90 8.82 34.97 3.77 35.08 3.77L35.99 3.77C36.22 3.77 36.26 3.75 36.26 3.56C36.26 3.32 36.25 3.26 36.05 3.26C35.73 3.26 34.85 3.30 34.43 3.30C34.01 3.30 33.32 3.26 33.10 3.26C32.91 3.26 32.84 3.28 32.84 3.51ZM50.41 3.51C50.41 3.72 50.48 3.79 50.68 3.79L51.49 3.77C51.59 3.77 51.63 6.61 51.63 8.55L51.63 10.42C51.63 11.30 51.62 12.18 51.58 12.18L50.97 12.18C50.75 12.18 50.68 12.19 50.68 12.39C50.68 12.63 50.72 12.68 50.92 12.68C51.04 12.68 51.87 12.64 52.29 12.64C52.71 12.64 53.48 12.68 53.80 12.68C53.97 12.68 54.00 12.61 54.00 12.40C54.00 12.24 53.97 12.18 53.80 12.18L52.99 12.18C52.92 12.18 52.84 9.18 52.84 8.37C52.84 8.30 52.84 8.26 52.95 8.26C53.34 8.26 53.94 8.27 54.24 8.27C56.48 8.32 56.62 10.00 56.62 11.68L56.62 12.49C56.62 12.61 56.67 12.64 56.77 12.64C56.77 12.64 58.21 12.68 58.69 12.68C58.86 12.68 58.91 12.64 58.91 12.53C58.91 12.24 58.86 12.18 58.70 12.18L58.06 12.18C57.96 12.18 57.93 12.14 57.90 11.31C57.82 8.99 56.45 8.34 55.54 8.05C55.40 8.01 55.43 8.01 55.54 7.95C56.13 7.69 57.44 6.94 57.44 5.63C57.44 3.63 55.75 3.21 54.35 3.21C54.03 3.21 52.74 3.29 52.32 3.29C51.90 3.29 50.92 3.26 50.69 3.26C50.51 3.26 50.41 3.28 50.41 3.51ZM52.84 7.80L52.84 4.40C52.84 4.05 52.86 3.68 52.91 3.68C53.12 3.65 53.40 3.65 53.62 3.65C54.92 3.65 56.17 4.47 56.17 5.82C56.17 6.99 55.62 7.57 54.96 7.88C54.92 7.90 54.88 7.90 54.81 7.90C54.33 7.88 53.62 7.88 53.02 7.87C52.85 7.87 52.84 7.85 52.84 7.80ZM75.92 5.01C75.92 5.17 76.10 5.17 76.23 5.17C76.38 5.17 76.43 5.15 76.44 4.97L76.55 3.89C76.57 3.81 77.11 3.75 77.87 3.75L79.86 3.75C79.91 3.75 79.94 4.35 79.94 4.97C79.94 6.43 79.88 12.18 79.76 12.18L78.89 12.18C78.67 12.18 78.62 12.19 78.62 12.39C78.62 12.63 78.64 12.68 78.83 12.68C79.16 12.68 80.14 12.64 80.56 12.64C80.98 12.64 81.91 12.68 82.24 12.68C82.40 12.68 82.43 12.61 82.43 12.40C82.43 12.24 82.40 12.18 82.24 12.18L81.24 12.18C81.21 12.18 81.21 11.76 81.21 11.31C81.21 9.56 81.30 5.96 81.30 5.92C81.31 5.18 81.31 3.75 81.41 3.75L83.02 3.75C83.73 3.75 84.56 3.78 84.56 3.85C84.56 3.99 84.52 4.90 84.52 4.97C84.52 5.12 84.59 5.17 84.77 5.17C84.97 5.17 85.04 5.17 85.04 5.03C85.04 3.93 85.09 3.40 85.09 3.14C85.09 2.94 85.01 2.94 84.81 2.94C84.66 2.94 84.60 2.98 84.59 3.16C84.59 3.23 83.94 3.28 83.10 3.28L78.11 3.28C77.45 3.28 76.64 3.28 76.64 3.21L76.64 3.07C76.64 2.94 76.51 2.94 76.41 2.94C76.19 2.94 76.16 3.00 76.15 3.19C76.09 3.89 75.92 4.97 75.92 5.01ZM92.85 3.51C92.85 3.72 92.92 3.79 93.11 3.79L93.93 3.77C94.02 3.77 94.07 6.61 94.07 8.55L94.07 10.42C94.07 11.30 94.05 12.18 94.01 12.18L93.41 12.18C93.18 12.18 93.11 12.19 93.11 12.39C93.11 12.63 93.16 12.68 93.35 12.68C93.48 12.68 94.30 12.64 94.72 12.64C95.14 12.64 95.91 12.68 96.24 12.68C96.40 12.68 96.43 12.61 96.43 12.40C96.43 12.24 96.40 12.18 96.24 12.18L95.42 12.18C95.35 12.18 95.27 9.18 95.27 8.37C95.27 8.30 95.27 8.26 95.38 8.26C95.77 8.26 96.38 8.27 96.67 8.27C98.91 8.32 99.05 10.00 99.05 11.68L99.05 12.49C99.05 12.61 99.11 12.64 99.20 12.64C99.20 12.64 100.65 12.68 101.12 12.68C101.29 12.68 101.35 12.64 101.35 12.53C101.35 12.24 101.29 12.18 101.14 12.18L100.49 12.18C100.39 12.18 100.37 12.14 100.34 11.31C100.25 8.99 98.88 8.34 97.97 8.05C97.83 8.01 97.86 8.01 97.97 7.95C98.56 7.69 99.88 6.94 99.88 5.63C99.88 3.63 98.18 3.21 96.78 3.21C96.46 3.21 95.17 3.29 94.75 3.29C94.33 3.29 93.35 3.26 93.13 3.26C92.95 3.26 92.85 3.28 92.85 3.51ZM95.27 7.80L95.27 4.40C95.27 4.05 95.30 3.68 95.34 3.68C95.55 3.65 95.83 3.65 96.05 3.65C97.36 3.65 98.60 4.47 98.60 5.82C98.60 6.99 98.06 7.57 97.40 7.88C97.36 7.90 97.31 7.90 97.24 7.90C96.77 7.88 96.05 7.88 95.45 7.87C95.28 7.87 95.27 7.85 95.27 7.80ZM108.68 12.39C108.68 12.63 108.68 12.68 108.88 12.68C109.05 12.68 109.37 12.64 109.94 12.64C110.56 12.64 111.10 12.68 111.26 12.68C111.43 12.68 111.43 12.61 111.43 12.40C111.43 12.24 111.43 12.18 111.26 12.18L110.18 12.18C110.18 12.18 110.17 12.18 110.17 12.17C110.18 11.87 110.95 9.90 111.30 9.02C111.37 8.83 111.38 8.79 111.59 8.79L114.42 8.79C114.56 8.79 114.56 8.81 114.63 9.03C114.90 9.77 115.61 11.89 115.61 12.17C115.61 12.18 115.60 12.18 115.60 12.18L114.83 12.18C114.60 12.18 114.59 12.19 114.59 12.39C114.59 12.63 114.60 12.68 114.77 12.68C115.09 12.68 115.96 12.64 116.38 12.64C116.80 12.64 117.47 12.68 117.68 12.68C117.82 12.68 117.84 12.61 117.84 12.40C117.84 12.24 117.82 12.18 117.68 12.18L117.19 12.18C117.10 12.18 116.07 9.34 115.51 7.78L113.83 3.07C113.82 3.00 113.75 2.94 113.67 2.94C113.54 2.94 113.44 3.16 113.36 3.35C113.20 3.71 112.97 3.84 112.85 4.13L111.37 7.57C111.19 8.01 109.48 12.18 109.35 12.18L108.93 12.18C108.71 12.18 108.68 12.19 108.68 12.39ZM111.58 8.33C111.58 8.30 111.61 8.23 111.65 8.13L113.02 4.77C113.06 4.66 113.09 4.61 113.12 4.61C113.13 4.61 113.15 4.63 113.19 4.77L114.35 8.18C114.38 8.25 114.39 8.29 114.39 8.32C114.39 8.36 114.37 8.37 114.27 8.37L111.76 8.37C111.58 8.37 111.58 8.34 111.58 8.33ZM125.45 12.39C125.45 12.63 125.50 12.68 125.69 12.68C126.01 12.68 126.77 12.64 127.48 12.64C128.14 12.64 128.94 12.68 129.16 12.68C129.33 12.68 129.36 12.61 129.36 12.40C129.36 12.24 129.33 12.18 129.16 12.18L128.20 12.18C128.10 12.18 128.07 9.55 128.07 7.76L128.07 5.87C128.07 5.14 128.10 3.70 128.20 3.70L129.11 3.70C129.33 3.70 129.36 3.68 129.36 3.49C129.36 3.25 129.33 3.19 129.16 3.19C128.84 3.19 128.17 3.23 127.51 3.23C126.70 3.23 125.99 3.19 125.76 3.19C125.58 3.19 125.51 3.21 125.51 3.44C125.51 3.68 125.59 3.70 125.76 3.70L126.69 3.70C126.73 3.70 126.80 4.79 126.80 5.71L126.80 7.08C126.80 8.92 126.78 12.18 126.67 12.18L125.75 12.18C125.52 12.18 125.45 12.19 125.45 12.39ZM137.26 12.39C137.26 12.63 137.27 12.68 137.47 12.68C137.65 12.68 138.03 12.64 138.64 12.64C139.27 12.64 139.83 12.68 140.15 12.68C140.32 12.68 140.32 12.61 140.32 12.40C140.32 12.24 140.32 12.18 140.15 12.18L138.95 12.18C138.91 12.18 138.89 11.54 138.89 10.79C138.89 9.46 138.91 7.48 138.91 5.99C138.91 5.25 138.91 4.84 138.92 4.28C138.92 4.02 138.99 4.14 139.12 4.28L146.01 12.66C146.09 12.75 146.17 12.89 146.29 12.89C146.40 12.89 146.47 12.77 146.47 12.54C146.47 12.39 146.64 6.65 146.65 4.48C146.65 4.06 146.68 3.70 146.71 3.70L147.34 3.70C147.56 3.70 147.62 3.68 147.62 3.49C147.62 3.25 147.62 3.19 147.42 3.19C147.22 3.19 146.79 3.23 146.23 3.23C145.61 3.23 144.82 3.19 144.72 3.19C144.55 3.19 144.55 3.26 144.55 3.47C144.55 3.64 144.55 3.70 144.72 3.70L146.02 3.70C146.03 3.70 146.03 4.33 146.03 4.44C146.03 5.85 146.06 8.33 146.06 9.70L146.06 10.29C146.06 10.57 146.05 10.65 145.82 10.37L140.14 3.39C140.03 3.25 140 3.19 139.83 3.19C139.75 3.19 139.37 3.23 139.06 3.23C138.77 3.23 137.69 3.19 137.49 3.19C137.33 3.19 137.30 3.26 137.30 3.47C137.30 3.64 137.33 3.70 137.49 3.70L138.40 3.70C138.40 4.17 138.36 8.53 138.29 10.79C138.26 11.69 138.28 12.18 138.17 12.18L137.52 12.18C137.30 12.18 137.26 12.19 137.26 12.39ZM155.51 12.39C155.51 12.63 155.55 12.68 155.75 12.68C156.07 12.68 156.83 12.64 157.54 12.64C158.20 12.64 159.00 12.68 159.22 12.68C159.39 12.68 159.42 12.61 159.42 12.40C159.42 12.24 159.39 12.18 159.22 12.18L158.26 12.18C158.16 12.18 158.13 9.55 158.13 7.76L158.13 5.87C158.13 5.14 158.16 3.70 158.26 3.70L159.17 3.70C159.39 3.70 159.42 3.68 159.42 3.49C159.42 3.25 159.39 3.19 159.22 3.19C158.90 3.19 158.23 3.23 157.57 3.23C156.76 3.23 156.04 3.19 155.82 3.19C155.64 3.19 155.57 3.21 155.57 3.44C155.57 3.68 155.65 3.70 155.82 3.70L156.74 3.70C156.79 3.70 156.86 4.79 156.86 5.71L156.86 7.08C156.86 8.92 156.84 12.18 156.73 12.18L155.81 12.18C155.58 12.18 155.51 12.19 155.51 12.39ZM167.31 12.39C167.31 12.63 167.33 12.68 167.52 12.68C167.71 12.68 168.08 12.64 168.70 12.64C169.33 12.64 169.89 12.68 170.21 12.68C170.38 12.68 170.38 12.61 170.38 12.40C170.38 12.24 170.38 12.18 170.21 12.18L169.01 12.18C168.97 12.18 168.95 11.54 168.95 10.79C168.95 9.46 168.97 7.48 168.97 5.99C168.97 5.25 168.97 4.84 168.98 4.28C168.98 4.02 169.05 4.14 169.18 4.28L176.06 12.66C176.15 12.75 176.23 12.89 176.34 12.89C176.46 12.89 176.53 12.77 176.53 12.54C176.53 12.39 176.69 6.65 176.71 4.48C176.71 4.06 176.74 3.70 176.76 3.70L177.39 3.70C177.62 3.70 177.67 3.68 177.67 3.49C177.67 3.25 177.67 3.19 177.48 3.19C177.28 3.19 176.85 3.23 176.29 3.23C175.67 3.23 174.87 3.19 174.78 3.19C174.61 3.19 174.61 3.26 174.61 3.47C174.61 3.64 174.61 3.70 174.78 3.70L176.08 3.70C176.09 3.70 176.09 4.33 176.09 4.44C176.09 5.85 176.12 8.33 176.12 9.70L176.12 10.29C176.12 10.57 176.11 10.65 175.88 10.37L170.20 3.39C170.09 3.25 170.06 3.19 169.89 3.19C169.81 3.19 169.43 3.23 169.12 3.23C168.83 3.23 167.75 3.19 167.55 3.19C167.38 3.19 167.36 3.26 167.36 3.47C167.36 3.64 167.38 3.70 167.55 3.70L168.46 3.70C168.46 4.17 168.42 8.53 168.35 10.79C168.32 11.69 168.34 12.18 168.22 12.18L167.58 12.18C167.36 12.18 167.31 12.19 167.31 12.39ZM185.78 7.91C185.78 11.40 188.15 12.89 190.74 12.89C192.63 12.89 194.63 11.89 194.63 11.58C194.63 11.12 194.64 10.68 194.64 10.33C194.64 9.81 194.66 9.56 194.78 9.56L195.22 9.56C195.36 9.56 195.37 9.39 195.37 9.30C195.37 9.18 195.36 9.06 195.22 9.06C194.99 9.06 194.63 9.10 193.96 9.10C193.51 9.10 192.77 9.07 192.08 9.06C191.94 9.06 191.94 9.24 191.94 9.35C191.94 9.45 191.97 9.56 192.09 9.56L193.31 9.56C193.35 9.56 193.41 9.87 193.41 10.33C193.41 10.82 193.40 11.41 193.37 11.65C193.35 11.76 192.71 12.39 191.13 12.39C188.89 12.39 187.29 10.29 187.29 7.94C187.29 5.42 188.85 3.54 190.85 3.54C192.74 3.54 193.91 4.87 193.91 5.03C193.91 5.15 193.86 6.12 193.86 6.17C193.86 6.31 193.90 6.36 194.17 6.36C194.36 6.36 194.43 6.33 194.43 6.15C194.43 5.43 194.47 3.75 194.47 3.56C194.47 3.36 194.38 3.33 194.17 3.33C193.94 3.33 193.91 3.39 193.91 3.56L193.91 3.91C193.91 3.99 193.87 4.02 193.75 3.92C193.47 3.72 192.47 3.08 190.90 3.08C188.06 3.08 185.78 4.79 185.78 7.91ZM213.21 3.51C213.21 3.75 213.25 3.79 213.46 3.79L214.38 3.77C214.44 3.77 214.44 4.47 214.44 5.24L214.44 5.96C214.44 7.70 214.42 12.18 214.31 12.18L213.64 12.18C213.42 12.18 213.35 12.19 213.35 12.39C213.35 12.63 213.36 12.68 213.56 12.68C213.68 12.68 214.66 12.64 215.08 12.64C215.50 12.64 216.37 12.68 216.69 12.68C216.86 12.68 216.89 12.61 216.89 12.40C216.89 12.24 216.86 12.18 216.69 12.18L215.70 12.18C215.66 12.18 215.64 10.60 215.64 9.58L215.64 8.65C215.64 8.57 215.64 8.54 215.74 8.54C216.13 8.54 216.45 8.58 216.96 8.58C218.95 8.58 220.35 7.83 220.35 6.01C220.35 4.09 218.86 3.22 216.94 3.22C216.62 3.22 215.53 3.29 215.11 3.29C214.87 3.29 213.68 3.26 213.46 3.26C213.28 3.26 213.21 3.28 213.21 3.51ZM215.66 8.05L215.66 4.40C215.66 4.05 215.67 3.70 215.71 3.68C215.84 3.67 216.01 3.67 216.15 3.67C217.80 3.67 219.06 4.47 219.06 5.80C219.06 7.57 217.73 8.19 216.15 8.19C215.89 8.19 215.66 8.16 215.66 8.05ZM226.84 12.39C226.84 12.63 226.84 12.68 227.04 12.68C227.21 12.68 227.53 12.64 228.10 12.64C228.72 12.64 229.26 12.68 229.42 12.68C229.59 12.68 229.59 12.61 229.59 12.40C229.59 12.24 229.59 12.18 229.42 12.18L228.34 12.18C228.34 12.18 228.33 12.18 228.33 12.17C228.34 11.87 229.11 9.90 229.46 9.02C229.53 8.83 229.54 8.79 229.75 8.79L232.58 8.79C232.72 8.79 232.72 8.81 232.79 9.03C233.06 9.77 233.77 11.89 233.77 12.17C233.77 12.18 233.76 12.18 233.76 12.18L232.99 12.18C232.76 12.18 232.75 12.19 232.75 12.39C232.75 12.63 232.76 12.68 232.93 12.68C233.25 12.68 234.12 12.64 234.54 12.64C234.96 12.64 235.63 12.68 235.84 12.68C235.98 12.68 236.00 12.61 236.00 12.40C236.00 12.24 235.98 12.18 235.84 12.18L235.35 12.18C235.26 12.18 234.23 9.34 233.67 7.78L231.99 3.07C231.98 3.00 231.91 2.94 231.83 2.94C231.70 2.94 231.60 3.16 231.52 3.35C231.36 3.71 231.13 3.84 231.01 4.13L229.53 7.57C229.35 8.01 227.64 12.18 227.51 12.18L227.09 12.18C226.87 12.18 226.84 12.19 226.84 12.39ZM229.74 8.33C229.74 8.30 229.77 8.23 229.81 8.13L231.18 4.77C231.22 4.66 231.25 4.61 231.28 4.61C231.29 4.61 231.31 4.63 231.35 4.77L232.51 8.18C232.54 8.25 232.55 8.29 232.55 8.32C232.55 8.36 232.53 8.37 232.43 8.37L229.92 8.37C229.74 8.37 229.74 8.34 229.74 8.33ZM243.75 3.51C243.75 3.72 243.82 3.79 244.02 3.79L244.83 3.77C244.93 3.77 244.97 6.61 244.97 8.55L244.97 10.42C244.97 11.30 244.96 12.18 244.92 12.18L244.31 12.18C244.09 12.18 244.02 12.19 244.02 12.39C244.02 12.63 244.06 12.68 244.26 12.68C244.38 12.68 245.21 12.64 245.63 12.64C246.05 12.64 246.82 12.68 247.14 12.68C247.31 12.68 247.34 12.61 247.34 12.40C247.34 12.24 247.31 12.18 247.14 12.18L246.33 12.18C246.26 12.18 246.18 9.18 246.18 8.37C246.18 8.30 246.18 8.26 246.29 8.26C246.68 8.26 247.28 8.27 247.58 8.27C249.82 8.32 249.96 10.00 249.96 11.68L249.96 12.49C249.96 12.61 250.01 12.64 250.11 12.64C250.11 12.64 251.55 12.68 252.03 12.68C252.20 12.68 252.25 12.64 252.25 12.53C252.25 12.24 252.20 12.18 252.04 12.18L251.40 12.18C251.30 12.18 251.27 12.14 251.24 11.31C251.16 8.99 249.79 8.34 248.88 8.05C248.74 8.01 248.77 8.01 248.88 7.95C249.47 7.69 250.78 6.94 250.78 5.63C250.78 3.63 249.09 3.21 247.69 3.21C247.37 3.21 246.08 3.29 245.66 3.29C245.24 3.29 244.26 3.26 244.03 3.26C243.85 3.26 243.75 3.28 243.75 3.51ZM246.18 7.80L246.18 4.40C246.18 4.05 246.20 3.68 246.25 3.68C246.46 3.65 246.74 3.65 246.96 3.65C248.26 3.65 249.51 4.47 249.51 5.82C249.51 6.99 248.96 7.57 248.30 7.88C248.26 7.90 248.22 7.90 248.15 7.90C247.67 7.88 246.96 7.88 246.36 7.87C246.19 7.87 246.18 7.85 246.18 7.80ZM258.76 5.01C258.76 5.17 258.94 5.17 259.07 5.17C259.22 5.17 259.27 5.15 259.28 4.97L259.39 3.89C259.41 3.81 259.95 3.75 260.71 3.75L262.70 3.75C262.75 3.75 262.78 4.35 262.78 4.97C262.78 6.43 262.72 12.18 262.60 12.18L261.73 12.18C261.51 12.18 261.46 12.19 261.46 12.39C261.46 12.63 261.48 12.68 261.67 12.68C262.00 12.68 262.98 12.64 263.40 12.64C263.82 12.64 264.75 12.68 265.08 12.68C265.24 12.68 265.27 12.61 265.27 12.40C265.27 12.24 265.24 12.18 265.08 12.18L264.08 12.18C264.05 12.18 264.05 11.76 264.05 11.31C264.05 9.56 264.14 5.96 264.14 5.92C264.15 5.18 264.15 3.75 264.25 3.75L265.86 3.75C266.57 3.75 267.40 3.78 267.40 3.85C267.40 3.99 267.36 4.90 267.36 4.97C267.36 5.12 267.43 5.17 267.61 5.17C267.81 5.17 267.88 5.17 267.88 5.03C267.88 3.93 267.93 3.40 267.93 3.14C267.93 2.94 267.85 2.94 267.65 2.94C267.50 2.94 267.44 2.98 267.43 3.16C267.43 3.23 266.78 3.28 265.94 3.28L260.95 3.28C260.29 3.28 259.48 3.28 259.48 3.21L259.48 3.07C259.48 2.94 259.35 2.94 259.25 2.94C259.03 2.94 259 3.00 258.99 3.19C258.93 3.89 258.76 4.97 258.76 5.01ZM275.69 12.39C275.69 12.63 275.70 12.68 275.90 12.68C276.08 12.68 276.46 12.64 277.07 12.64C277.70 12.64 278.26 12.68 278.59 12.68C278.75 12.68 278.75 12.61 278.75 12.40C278.75 12.24 278.75 12.18 278.59 12.18L277.38 12.18C277.34 12.18 277.33 11.54 277.33 10.79C277.33 9.46 277.34 7.48 277.34 5.99C277.34 5.25 277.34 4.84 277.35 4.28C277.35 4.02 277.42 4.14 277.55 4.28L284.44 12.66C284.52 12.75 284.61 12.89 284.72 12.89C284.83 12.89 284.90 12.77 284.90 12.54C284.90 12.39 285.07 6.65 285.08 4.48C285.08 4.06 285.11 3.70 285.14 3.70L285.77 3.70C285.99 3.70 286.05 3.68 286.05 3.49C286.05 3.25 286.05 3.19 285.85 3.19C285.66 3.19 285.22 3.23 284.66 3.23C284.05 3.23 283.25 3.19 283.15 3.19C282.98 3.19 282.98 3.26 282.98 3.47C282.98 3.64 282.98 3.70 283.15 3.70L284.45 3.70C284.47 3.70 284.47 4.33 284.47 4.44C284.47 5.85 284.49 8.33 284.49 9.70L284.49 10.29C284.49 10.57 284.48 10.65 284.26 10.37L278.57 3.39C278.46 3.25 278.43 3.19 278.26 3.19C278.18 3.19 277.80 3.23 277.49 3.23C277.20 3.23 276.12 3.19 275.93 3.19C275.76 3.19 275.73 3.26 275.73 3.47C275.73 3.64 275.76 3.70 275.93 3.70L276.84 3.70C276.84 4.17 276.79 8.53 276.72 10.79C276.70 11.69 276.71 12.18 276.60 12.18L275.95 12.18C275.73 12.18 275.69 12.19 275.69 12.39ZM294.08 12.39C294.08 12.63 294.11 12.68 294.31 12.68C294.63 12.68 295.60 12.64 296.02 12.64C296.44 12.64 300.94 12.68 301.27 12.68C301.39 12.68 301.55 12.66 301.55 12.49C301.55 12.07 301.59 11.23 301.59 10.53C301.59 10.39 301.43 10.39 301.31 10.39C301.20 10.39 301.07 10.39 301.07 10.51C301.06 11.06 301.06 11.41 301.03 11.76C301.00 12.01 301.00 12.04 300.90 12.04C300.75 12.04 298.12 12.08 296.62 12.08C296.55 12.08 296.51 10.11 296.46 8.26C296.46 8.06 296.51 8.09 296.65 8.09L298.93 8.09C299.63 8.09 299.66 8.20 299.66 8.30L299.66 9.00C299.66 9.14 299.84 9.14 299.95 9.14C300.05 9.14 300.17 9.13 300.17 9.02C300.17 8.83 300.15 8.33 300.15 7.83C300.15 7.32 300.17 6.83 300.17 6.71C300.17 6.59 300.03 6.58 299.94 6.58C299.82 6.58 299.66 6.59 299.66 6.72L299.66 7.45C299.66 7.62 299.21 7.63 298.93 7.63L296.59 7.63C296.48 7.63 296.46 7.63 296.46 7.45C296.45 6.75 296.44 6.06 296.44 5.46C296.44 5.12 296.44 3.71 296.52 3.71C297.75 3.71 300.26 3.75 300.26 3.81C300.26 3.99 300.22 4.83 300.22 4.89C300.22 5.04 300.29 5.10 300.47 5.10C300.66 5.10 300.73 5.08 300.73 4.94C300.73 3.85 300.79 3.36 300.79 3.09C300.79 2.91 300.71 2.90 300.51 2.90C300.31 2.90 300.31 2.95 300.29 3.11C300.27 3.25 300.34 3.25 299.43 3.25C298.82 3.25 296.67 3.29 295.90 3.29C295.41 3.29 294.48 3.25 294.38 3.25C294.25 3.25 294.20 3.30 294.20 3.49C294.20 3.72 294.27 3.74 294.43 3.74L295.09 3.74C295.15 3.74 295.22 4.79 295.22 5.71C295.22 5.80 295.27 8.27 295.27 9.83L295.27 11.17C295.27 11.84 295.25 12.18 295.22 12.18L294.36 12.18C294.14 12.18 294.08 12.21 294.08 12.39ZM309.55 3.51C309.55 3.72 309.62 3.79 309.82 3.79L310.63 3.77C310.73 3.77 310.77 6.61 310.77 8.55L310.77 10.42C310.77 11.30 310.76 12.18 310.72 12.18L310.11 12.18C309.89 12.18 309.82 12.19 309.82 12.39C309.82 12.63 309.86 12.68 310.06 12.68C310.18 12.68 311.01 12.64 311.43 12.64C311.85 12.64 312.62 12.68 312.94 12.68C313.11 12.68 313.14 12.61 313.14 12.40C313.14 12.24 313.11 12.18 312.94 12.18L312.13 12.18C312.06 12.18 311.98 9.18 311.98 8.37C311.98 8.30 311.98 8.26 312.09 8.26C312.48 8.26 313.08 8.27 313.38 8.27C315.62 8.32 315.76 10.00 315.76 11.68L315.76 12.49C315.76 12.61 315.81 12.64 315.91 12.64C315.91 12.64 317.35 12.68 317.83 12.68C318.00 12.68 318.05 12.64 318.05 12.53C318.05 12.24 318.00 12.18 317.84 12.18L317.20 12.18C317.10 12.18 317.07 12.14 317.04 11.31C316.96 8.99 315.59 8.34 314.68 8.05C314.54 8.01 314.57 8.01 314.68 7.95C315.27 7.69 316.58 6.94 316.58 5.63C316.58 3.63 314.89 3.21 313.49 3.21C313.17 3.21 311.88 3.29 311.46 3.29C311.04 3.29 310.06 3.26 309.83 3.26C309.65 3.26 309.55 3.28 309.55 3.51ZM311.98 7.80L311.98 4.40C311.98 4.05 312.00 3.68 312.05 3.68C312.26 3.65 312.54 3.65 312.76 3.65C314.06 3.65 315.31 4.47 315.31 5.82C315.31 6.99 314.76 7.57 314.10 7.88C314.06 7.90 314.02 7.90 313.95 7.90C313.47 7.88 312.76 7.88 312.16 7.87C311.99 7.87 311.98 7.85 311.98 7.80ZM325.53 14.55C325.53 14.64 325.60 14.83 325.72 14.83C325.89 14.83 327.33 13.45 327.33 12.25C327.33 11.86 326.55 11.33 326.30 11.33C326.20 11.33 325.58 11.66 325.58 11.93C325.58 12.21 326.51 12.45 326.51 13.08C326.51 13.78 325.53 14.42 325.53 14.55ZM345.03 12.39C345.03 12.63 345.03 12.68 345.23 12.68C345.39 12.68 345.72 12.64 346.29 12.64C346.91 12.64 347.45 12.68 347.61 12.68C347.77 12.68 347.77 12.61 347.77 12.40C347.77 12.24 347.77 12.18 347.61 12.18L346.53 12.18C346.53 12.18 346.51 12.18 346.51 12.17C346.53 11.87 347.30 9.90 347.65 9.02C347.72 8.83 347.73 8.79 347.94 8.79L350.77 8.79C350.91 8.79 350.91 8.81 350.98 9.03C351.25 9.77 351.96 11.89 351.96 12.17C351.96 12.18 351.95 12.18 351.95 12.18L351.18 12.18C350.95 12.18 350.94 12.19 350.94 12.39C350.94 12.63 350.95 12.68 351.12 12.68C351.44 12.68 352.31 12.64 352.73 12.64C353.15 12.64 353.82 12.68 354.03 12.68C354.17 12.68 354.19 12.61 354.19 12.40C354.19 12.24 354.17 12.18 354.03 12.18L353.54 12.18C353.44 12.18 352.42 9.34 351.86 7.78L350.18 3.07C350.17 3.00 350.10 2.94 350.01 2.94C349.89 2.94 349.79 3.16 349.71 3.35C349.55 3.71 349.31 3.84 349.20 4.13L347.72 7.57C347.54 8.01 345.83 12.18 345.70 12.18L345.28 12.18C345.06 12.18 345.03 12.19 345.03 12.39ZM347.93 8.33C347.93 8.30 347.96 8.23 348.00 8.13L349.37 4.77C349.41 4.66 349.44 4.61 349.47 4.61C349.48 4.61 349.50 4.63 349.54 4.77L350.70 8.18C350.73 8.25 350.74 8.29 350.74 8.32C350.74 8.36 350.71 8.37 350.62 8.37L348.11 8.37C347.93 8.37 347.93 8.34 347.93 8.33ZM361.94 12.39C361.94 12.63 361.96 12.68 362.15 12.68C362.33 12.68 362.71 12.64 363.33 12.64C363.96 12.64 364.52 12.68 364.84 12.68C365.01 12.68 365.01 12.61 365.01 12.40C365.01 12.24 365.01 12.18 364.84 12.18L363.64 12.18C363.59 12.18 363.58 11.54 363.58 10.79C363.58 9.46 363.59 7.48 363.59 5.99C363.59 5.25 363.59 4.84 363.61 4.28C363.61 4.02 363.68 4.14 363.80 4.28L370.69 12.66C370.78 12.75 370.86 12.89 370.97 12.89C371.08 12.89 371.15 12.77 371.15 12.54C371.15 12.39 371.32 6.65 371.34 4.48C371.34 4.06 371.36 3.70 371.39 3.70L372.02 3.70C372.25 3.70 372.30 3.68 372.30 3.49C372.30 3.25 372.30 3.19 372.11 3.19C371.91 3.19 371.48 3.23 370.92 3.23C370.30 3.23 369.50 3.19 369.40 3.19C369.24 3.19 369.24 3.26 369.24 3.47C369.24 3.64 369.24 3.70 369.40 3.70L370.71 3.70C370.72 3.70 370.72 4.33 370.72 4.44C370.72 5.85 370.75 8.33 370.75 9.70L370.75 10.29C370.75 10.57 370.73 10.65 370.51 10.37L364.83 3.39C364.71 3.25 364.69 3.19 364.52 3.19C364.43 3.19 364.06 3.23 363.75 3.23C363.45 3.23 362.38 3.19 362.18 3.19C362.01 3.19 361.98 3.26 361.98 3.47C361.98 3.64 362.01 3.70 362.18 3.70L363.09 3.70C363.09 4.17 363.05 8.53 362.98 10.79C362.95 11.69 362.96 12.18 362.85 12.18L362.21 12.18C361.98 12.18 361.94 12.19 361.94 12.39ZM379.92 3.44C379.92 3.68 380.00 3.70 380.17 3.70L380.58 3.70C380.70 3.70 382.96 7.74 383.36 8.50C383.42 8.60 383.46 8.65 383.46 8.81C383.46 10.50 383.45 12.18 383.32 12.18L382.61 12.18C382.38 12.18 382.34 12.19 382.34 12.39C382.34 12.63 382.35 12.68 382.55 12.68C382.75 12.68 383.56 12.64 384.15 12.64C384.97 12.64 385.50 12.68 385.83 12.68C385.99 12.68 386.02 12.61 386.02 12.40C386.02 12.24 385.99 12.18 385.83 12.18L384.86 12.18C384.76 12.18 384.73 9.72 384.73 8.22C384.73 8.18 384.73 8.15 384.78 8.09C385.32 7.22 387.27 3.70 387.34 3.70L387.81 3.70C387.98 3.70 388.08 3.68 388.08 3.44C388.08 3.22 388.00 3.19 387.81 3.19C387.59 3.19 387.35 3.23 386.75 3.23C386.16 3.23 385.83 3.19 385.66 3.19C385.46 3.19 385.42 3.25 385.42 3.49C385.42 3.68 385.49 3.70 385.71 3.70L386.44 3.70C386.46 3.70 386.47 3.71 386.47 3.74C386.47 4.05 384.90 6.99 384.52 7.71C384.41 7.92 384.41 7.88 384.30 7.67C383.89 6.89 382.61 4.56 382.31 3.85C382.26 3.71 382.24 3.70 382.42 3.70L383.25 3.70C383.47 3.70 383.50 3.68 383.50 3.49C383.50 3.25 383.46 3.19 383.31 3.19C383.07 3.19 382.45 3.23 381.65 3.23C380.84 3.23 380.35 3.19 380.17 3.19C379.99 3.19 379.92 3.21 379.92 3.44ZM395.28 3.51C395.28 3.75 395.39 3.77 395.56 3.77L396.06 3.77C396.14 3.77 398.29 10.99 398.31 11.07C398.66 12.14 398.78 12.99 399.08 12.99C399.31 12.99 399.41 12.67 399.69 12.26C399.84 12.05 399.94 12.01 400.08 11.66L402.07 6.45C402.14 6.29 402.16 6.20 402.19 6.20C402.22 6.20 402.25 6.29 402.29 6.45C402.89 8.51 403.56 11.03 403.58 11.07C403.93 12.14 404.04 12.99 404.35 12.99C404.57 12.99 404.67 12.67 404.95 12.26C405.10 12.05 405.20 12.01 405.34 11.66L408.44 4.06C408.53 3.81 408.53 3.77 408.90 3.77C409.14 3.77 409.19 3.71 409.19 3.53C409.19 3.32 409.15 3.26 408.95 3.26C408.81 3.26 408.51 3.30 408.00 3.30C407.26 3.30 406.76 3.26 406.56 3.26C406.38 3.26 406.28 3.28 406.28 3.51C406.28 3.75 406.39 3.77 406.56 3.77L407.47 3.77C407.54 3.77 407.55 3.81 407.55 3.95C407.55 4.63 405.96 8.72 405.24 10.63C405.10 10.99 405.03 11.17 404.99 11.17C404.94 11.17 404.88 10.99 404.75 10.60C404.67 10.30 403.75 7.18 403.21 5.22C403.17 5.05 402.96 4.17 402.96 3.85C402.96 3.81 402.96 3.79 402.98 3.77L403.86 3.77C404.04 3.77 404.14 3.75 404.14 3.56C404.14 3.32 404.10 3.26 403.90 3.26C403.58 3.26 402.64 3.30 402.22 3.30C401.80 3.30 400.89 3.26 400.67 3.26C400.48 3.26 400.39 3.28 400.39 3.51C400.39 3.75 400.50 3.77 400.67 3.77L401.46 3.77C401.51 3.77 401.69 4.27 401.84 4.83C401.90 5.05 401.94 5.15 401.94 5.25C401.94 5.31 401.94 5.38 401.90 5.49L399.90 10.60C399.80 10.82 399.77 10.95 399.73 10.95C399.69 10.95 399.66 10.84 399.57 10.60C399.49 10.32 398.48 7.27 397.88 5.22C397.84 5.08 397.52 3.96 397.50 3.85C397.52 3.77 397.56 3.77 397.60 3.77L398.30 3.77C398.52 3.77 398.59 3.75 398.59 3.56C398.59 3.32 398.55 3.26 398.36 3.26C398.03 3.26 397.32 3.30 396.90 3.30C396.48 3.30 395.78 3.26 395.56 3.26C395.37 3.26 395.28 3.28 395.28 3.51ZM416.81 12.39C416.81 12.63 416.81 12.68 417.00 12.68C417.33 12.68 418.26 12.64 418.68 12.64C419.10 12.64 419.93 12.68 420.25 12.68C420.42 12.68 420.42 12.61 420.42 12.40C420.42 12.24 420.42 12.18 420.25 12.18L419.33 12.18C419.24 12.18 419.20 9.93 419.20 8.20C419.20 8.01 419.20 8.01 419.33 8.01L424.56 8.01C424.63 8.01 424.65 8.01 424.65 8.18L424.65 9.91C424.65 11.05 424.63 12.18 424.58 12.18L423.81 12.18C423.58 12.18 423.54 12.19 423.54 12.39C423.54 12.63 423.56 12.68 423.75 12.68C424.07 12.68 424.91 12.64 425.33 12.64C425.75 12.64 426.34 12.68 426.66 12.68C426.83 12.68 426.85 12.61 426.85 12.40C426.85 12.24 426.83 12.18 426.66 12.18L425.92 12.18C425.88 12.18 425.87 9.27 425.87 7.04C425.87 5.40 425.87 3.70 425.91 3.70L426.52 3.70C426.75 3.70 426.79 3.68 426.79 3.49C426.79 3.25 426.78 3.19 426.58 3.19C426.44 3.19 425.81 3.23 425.22 3.23C424.55 3.23 423.95 3.19 423.72 3.19C423.53 3.19 423.50 3.22 423.50 3.44C423.50 3.67 423.57 3.70 423.74 3.70L424.54 3.70C424.59 3.70 424.65 4.79 424.65 5.71L424.65 7.42C424.65 7.59 424.65 7.59 424.48 7.59L419.37 7.59C419.20 7.59 419.20 7.59 419.20 7.38C419.20 6.96 419.19 6.23 419.19 5.53C419.19 4.66 419.20 3.70 419.26 3.70L420.03 3.70C420.25 3.70 420.29 3.68 420.29 3.49C420.29 3.25 420.28 3.19 420.08 3.19C419.76 3.19 419.17 3.23 418.57 3.23C417.98 3.23 417.49 3.19 417.27 3.19C417.09 3.19 416.99 3.21 416.99 3.44C416.99 3.68 417.10 3.70 417.27 3.70L417.89 3.70C417.94 3.70 417.96 5.59 417.96 7.18L417.96 8.61C417.96 10.08 417.94 12.18 417.87 12.18L417.06 12.18C416.84 12.18 416.81 12.19 416.81 12.39ZM434.88 12.39C434.88 12.63 434.91 12.68 435.11 12.68C435.43 12.68 436.39 12.64 436.81 12.64C437.23 12.64 441.74 12.68 442.06 12.68C442.19 12.68 442.34 12.66 442.34 12.49C442.34 12.07 442.39 11.23 442.39 10.53C442.39 10.39 442.23 10.39 442.11 10.39C441.99 10.39 441.87 10.39 441.87 10.51C441.85 11.06 441.85 11.41 441.83 11.76C441.80 12.01 441.80 12.04 441.70 12.04C441.55 12.04 438.91 12.08 437.42 12.08C437.35 12.08 437.30 10.11 437.26 8.26C437.26 8.06 437.30 8.09 437.44 8.09L439.73 8.09C440.43 8.09 440.45 8.20 440.45 8.30L440.45 9.00C440.45 9.14 440.64 9.14 440.75 9.14C440.85 9.14 440.97 9.13 440.97 9.02C440.97 8.83 440.94 8.33 440.94 7.83C440.94 7.32 440.97 6.83 440.97 6.71C440.97 6.59 440.83 6.58 440.73 6.58C440.62 6.58 440.45 6.59 440.45 6.72L440.45 7.45C440.45 7.62 440.01 7.63 439.73 7.63L437.39 7.63C437.28 7.63 437.26 7.63 437.26 7.45C437.25 6.75 437.23 6.06 437.23 5.46C437.23 5.12 437.23 3.71 437.32 3.71C438.55 3.71 441.06 3.75 441.06 3.81C441.06 3.99 441.01 4.83 441.01 4.89C441.01 5.04 441.08 5.10 441.27 5.10C441.46 5.10 441.53 5.08 441.53 4.94C441.53 3.85 441.59 3.36 441.59 3.09C441.59 2.91 441.50 2.90 441.31 2.90C441.11 2.90 441.11 2.95 441.08 3.11C441.07 3.25 441.14 3.25 440.23 3.25C439.61 3.25 437.47 3.29 436.70 3.29C436.21 3.29 435.27 3.25 435.18 3.25C435.05 3.25 434.99 3.30 434.99 3.49C434.99 3.72 435.06 3.74 435.23 3.74L435.89 3.74C435.95 3.74 436.02 4.79 436.02 5.71C436.02 5.80 436.07 8.27 436.07 9.83L436.07 11.17C436.07 11.84 436.04 12.18 436.02 12.18L435.16 12.18C434.94 12.18 434.88 12.21 434.88 12.39ZM450.35 3.51C450.35 3.72 450.42 3.79 450.62 3.79L451.43 3.77C451.53 3.77 451.57 6.61 451.57 8.55L451.57 10.42C451.57 11.30 451.56 12.18 451.51 12.18L450.91 12.18C450.69 12.18 450.62 12.19 450.62 12.39C450.62 12.63 450.66 12.68 450.86 12.68C450.98 12.68 451.81 12.64 452.23 12.64C452.65 12.64 453.42 12.68 453.74 12.68C453.91 12.68 453.94 12.61 453.94 12.40C453.94 12.24 453.91 12.18 453.74 12.18L452.93 12.18C452.86 12.18 452.77 9.18 452.77 8.37C452.77 8.30 452.77 8.26 452.89 8.26C453.28 8.26 453.88 8.27 454.17 8.27C456.41 8.32 456.55 10.00 456.55 11.68L456.55 12.49C456.55 12.61 456.61 12.64 456.71 12.64C456.71 12.64 458.15 12.68 458.63 12.68C458.79 12.68 458.85 12.64 458.85 12.53C458.85 12.24 458.79 12.18 458.64 12.18L458.00 12.18C457.90 12.18 457.87 12.14 457.84 11.31C457.76 8.99 456.39 8.34 455.48 8.05C455.34 8.01 455.36 8.01 455.48 7.95C456.06 7.69 457.38 6.94 457.38 5.63C457.38 3.63 455.69 3.21 454.29 3.21C453.96 3.21 452.68 3.29 452.26 3.29C451.84 3.29 450.86 3.26 450.63 3.26C450.45 3.26 450.35 3.28 450.35 3.51ZM452.77 7.80L452.77 4.40C452.77 4.05 452.80 3.68 452.84 3.68C453.05 3.65 453.33 3.65 453.56 3.65C454.86 3.65 456.11 4.47 456.11 5.82C456.11 6.99 455.56 7.57 454.90 7.88C454.86 7.90 454.82 7.90 454.75 7.90C454.27 7.88 453.56 7.88 452.96 7.87C452.79 7.87 452.77 7.85 452.77 7.80ZM466.33 12.39C466.33 12.63 466.35 12.68 466.55 12.68C466.87 12.68 467.84 12.64 468.26 12.64C468.68 12.64 473.19 12.68 473.51 12.68C473.63 12.68 473.79 12.66 473.79 12.49C473.79 12.07 473.83 11.23 473.83 10.53C473.83 10.39 473.68 10.39 473.55 10.39C473.44 10.39 473.31 10.39 473.31 10.51C473.30 11.06 473.30 11.41 473.27 11.76C473.24 12.01 473.24 12.04 473.14 12.04C472.99 12.04 470.36 12.08 468.86 12.08C468.79 12.08 468.75 10.11 468.71 8.26C468.71 8.06 468.75 8.09 468.89 8.09L471.17 8.09C471.87 8.09 471.90 8.20 471.90 8.30L471.90 9.00C471.90 9.14 472.08 9.14 472.19 9.14C472.29 9.14 472.42 9.13 472.42 9.02C472.42 8.83 472.39 8.33 472.39 7.83C472.39 7.32 472.42 6.83 472.42 6.71C472.42 6.59 472.28 6.58 472.18 6.58C472.07 6.58 471.90 6.59 471.90 6.72L471.90 7.45C471.90 7.62 471.45 7.63 471.17 7.63L468.83 7.63C468.72 7.63 468.71 7.63 468.71 7.45C468.69 6.75 468.68 6.06 468.68 5.46C468.68 5.12 468.68 3.71 468.76 3.71C469.99 3.71 472.50 3.75 472.50 3.81C472.50 3.99 472.46 4.83 472.46 4.89C472.46 5.04 472.53 5.10 472.71 5.10C472.91 5.10 472.98 5.08 472.98 4.94C472.98 3.85 473.03 3.36 473.03 3.09C473.03 2.91 472.95 2.90 472.75 2.90C472.56 2.90 472.56 2.95 472.53 3.11C472.51 3.25 472.58 3.25 471.67 3.25C471.06 3.25 468.92 3.29 468.15 3.29C467.66 3.29 466.72 3.25 466.62 3.25C466.49 3.25 466.44 3.30 466.44 3.49C466.44 3.72 466.51 3.74 466.68 3.74L467.33 3.74C467.39 3.74 467.46 4.79 467.46 5.71C467.46 5.80 467.52 8.27 467.52 9.83L467.52 11.17C467.52 11.84 467.49 12.18 467.46 12.18L466.61 12.18C466.38 12.18 466.33 12.21 466.33 12.39ZM491.18 3.44C491.18 3.68 491.26 3.70 491.43 3.70L491.83 3.70C491.96 3.70 494.21 7.74 494.62 8.50C494.68 8.60 494.72 8.65 494.72 8.81C494.72 10.50 494.70 12.18 494.58 12.18L493.86 12.18C493.64 12.18 493.60 12.19 493.60 12.39C493.60 12.63 493.61 12.68 493.81 12.68C494.00 12.68 494.82 12.64 495.40 12.64C496.23 12.64 496.76 12.68 497.08 12.68C497.25 12.68 497.28 12.61 497.28 12.40C497.28 12.24 497.25 12.18 497.08 12.18L496.12 12.18C496.02 12.18 495.99 9.72 495.99 8.22C495.99 8.18 495.99 8.15 496.03 8.09C496.58 7.22 498.53 3.70 498.60 3.70L499.07 3.70C499.24 3.70 499.34 3.68 499.34 3.44C499.34 3.22 499.25 3.19 499.07 3.19C498.85 3.19 498.61 3.23 498.01 3.23C497.42 3.23 497.08 3.19 496.92 3.19C496.72 3.19 496.68 3.25 496.68 3.49C496.68 3.68 496.75 3.70 496.97 3.70L497.70 3.70C497.71 3.70 497.73 3.71 497.73 3.74C497.73 4.05 496.16 6.99 495.78 7.71C495.67 7.92 495.67 7.88 495.56 7.67C495.15 6.89 493.86 4.56 493.57 3.85C493.51 3.71 493.50 3.70 493.68 3.70L494.51 3.70C494.73 3.70 494.76 3.68 494.76 3.49C494.76 3.25 494.72 3.19 494.56 3.19C494.33 3.19 493.71 3.23 492.91 3.23C492.10 3.23 491.61 3.19 491.43 3.19C491.25 3.19 491.18 3.21 491.18 3.44ZM506.46 8.15C506.46 11.17 508.80 12.80 511.06 12.80C513.84 12.80 515.82 10.89 515.82 8.06C515.82 5.33 514.07 3.11 511.27 3.11C508.66 3.11 506.46 5.10 506.46 8.15ZM507.86 7.77C507.86 5.64 509.15 3.58 511.13 3.58C513.37 3.58 514.44 5.81 514.44 7.94C514.44 10.08 513.34 12.32 511.07 12.32C509.08 12.32 507.86 10.28 507.86 7.77ZM523.92 3.51C523.92 3.75 524.01 3.77 524.17 3.77L524.71 3.77C524.76 3.77 524.76 4.12 524.76 4.55C524.76 5.66 524.75 8.96 524.75 9.42C524.75 11.13 525.00 12.80 527.86 12.80C528.93 12.80 530.10 12.38 530.75 12.00C531.01 11.86 531.30 11.72 531.38 11.72C531.65 11.72 531.92 12.74 532.25 12.74C532.57 12.74 532.59 12.35 532.59 12.25C532.59 11.96 532.64 10.08 532.69 8.16C532.74 6.12 532.73 3.77 532.84 3.77L533.16 3.77C533.39 3.77 533.46 3.75 533.46 3.56C533.46 3.32 533.41 3.26 533.22 3.26C533.08 3.26 532.55 3.30 532.13 3.30C531.71 3.30 530.91 3.26 530.68 3.26C530.50 3.26 530.40 3.28 530.40 3.51C530.40 3.75 530.52 3.77 530.68 3.77L531.38 3.77C531.45 3.77 531.47 4.30 531.47 4.87L531.47 9.14C531.47 11.19 531.47 11.12 531.13 11.34C530.74 11.61 529.93 12.08 528.75 12.08C526.78 12.08 525.98 11.17 525.98 9.41C525.98 8.82 526.05 3.77 526.16 3.77L527.07 3.77C527.30 3.77 527.34 3.75 527.34 3.56C527.34 3.32 527.32 3.26 527.13 3.26C526.81 3.26 525.92 3.30 525.50 3.30C525.08 3.30 524.40 3.26 524.17 3.26C523.99 3.26 523.92 3.28 523.92 3.51ZM551.36 7.91C551.36 11.40 553.73 12.89 556.32 12.89C558.21 12.89 560.21 11.89 560.21 11.58C560.21 11.12 560.22 10.68 560.22 10.33C560.22 9.81 560.24 9.56 560.36 9.56L560.80 9.56C560.94 9.56 560.95 9.39 560.95 9.30C560.95 9.18 560.94 9.06 560.80 9.06C560.57 9.06 560.21 9.10 559.54 9.10C559.09 9.10 558.35 9.07 557.66 9.06C557.52 9.06 557.52 9.24 557.52 9.35C557.52 9.45 557.55 9.56 557.68 9.56L558.89 9.56C558.94 9.56 558.99 9.87 558.99 10.33C558.99 10.82 558.98 11.41 558.95 11.65C558.94 11.76 558.29 12.39 556.71 12.39C554.47 12.39 552.87 10.29 552.87 7.94C552.87 5.42 554.43 3.54 556.43 3.54C558.32 3.54 559.50 4.87 559.50 5.03C559.50 5.15 559.44 6.12 559.44 6.17C559.44 6.31 559.48 6.36 559.75 6.36C559.94 6.36 560.01 6.33 560.01 6.15C560.01 5.43 560.06 3.75 560.06 3.56C560.06 3.36 559.96 3.33 559.75 3.33C559.52 3.33 559.50 3.39 559.50 3.56L559.50 3.91C559.50 3.99 559.45 4.02 559.33 3.92C559.05 3.72 558.05 3.08 556.49 3.08C553.64 3.08 551.36 4.79 551.36 7.91ZM568.92 8.15C568.92 11.17 571.26 12.80 573.51 12.80C576.30 12.80 578.27 10.89 578.27 8.06C578.27 5.33 576.52 3.11 573.72 3.11C571.12 3.11 568.92 5.10 568.92 8.15ZM570.32 7.77C570.32 5.64 571.61 3.58 573.58 3.58C575.82 3.58 576.90 5.81 576.90 7.94C576.90 10.08 575.79 12.32 573.52 12.32C571.54 12.32 570.32 10.28 570.32 7.77ZM586.24 12.07C586.24 12.31 586.68 12.75 587.10 12.75C587.29 12.75 587.73 12.35 587.73 11.90C587.73 11.51 587.16 11.20 586.89 11.20C586.63 11.20 586.24 11.76 586.24 12.07Z"></path></g></svg>