<svg data-v-fde0c5aa="" xmlns="http://www.w3.org/2000/svg" viewBox="0 0 300 300" class="font"><!----><defs data-v-fde0c5aa=""><linearGradient data-v-fde0c5aa="" gradientTransform="rotate(25)" id="3a7a3c53-40f7-4e3d-8fbb-43263fd3e74c" x1="0%" y1="0%" x2="100%" y2="0%"><stop data-v-fde0c5aa="" offset="0%" stop-color="#30223A" stop-opacity="1"></stop><stop data-v-fde0c5aa="" offset="100%" stop-color="#F13800" stop-opacity="1"></stop></linearGradient></defs><rect data-v-fde0c5aa="" fill="url(#3a7a3c53-40f7-4e3d-8fbb-43263fd3e74c)" x="0" y="0" width="300px" height="300px" class="logo-background-square"></rect><defs data-v-fde0c5aa=""><!----></defs><g data-v-fde0c5aa="" id="098aeff0-cf5a-4793-9fa0-47f7a03f4988" fill="#ffffff" transform="matrix(3.583645357823121,0,0,3.583645357823121,37.52728449804422,113.46473496181979)"><path d="M7.63 5.94Q7.63 6.05 7.56 6.12Q7.49 6.19 7.38 6.19L7.38 6.19L3.11 6.19Q3.01 6.19 3.01 6.29L3.01 6.29L3.01 7.95Q3.01 8.05 3.11 8.05L3.11 8.05L5.81 8.05Q5.92 8.05 5.99 8.12Q6.06 8.19 6.06 8.30L6.06 8.30L6.06 9.77Q6.06 9.88 5.99 9.95Q5.92 10.02 5.81 10.02L5.81 10.02L3.11 10.02Q3.01 10.02 3.01 10.12L3.01 10.12L3.01 13.75Q3.01 13.86 2.94 13.93Q2.87 14 2.76 14L2.76 14L0.94 14Q0.83 14 0.76 13.93Q0.69 13.86 0.69 13.75L0.69 13.75L0.69 4.45Q0.69 4.34 0.76 4.27Q0.83 4.20 0.94 4.20L0.94 4.20L7.38 4.20Q7.49 4.20 7.56 4.27Q7.63 4.34 7.63 4.45L7.63 4.45L7.63 5.94ZM9.66 6.29Q9.04 6.29 8.67 5.91Q8.29 5.54 8.29 4.94L8.29 4.94Q8.29 4.35 8.67 3.99Q9.04 3.63 9.66 3.63L9.66 3.63Q10.28 3.63 10.65 3.99Q11.03 4.35 11.03 4.94L11.03 4.94Q11.03 5.54 10.65 5.91Q10.28 6.29 9.66 6.29L9.66 6.29ZM8.75 14Q8.64 14 8.57 13.93Q8.50 13.86 8.50 13.75L8.50 13.75L8.50 7.01Q8.50 6.90 8.57 6.83Q8.64 6.76 8.75 6.76L8.75 6.76L10.57 6.76Q10.68 6.76 10.75 6.83Q10.82 6.90 10.82 7.01L10.82 7.01L10.82 13.75Q10.82 13.86 10.75 13.93Q10.68 14 10.57 14L10.57 14L8.75 14ZM16.49 7.01Q16.49 6.90 16.56 6.83Q16.63 6.76 16.74 6.76L16.74 6.76L18.56 6.76Q18.68 6.76 18.75 6.83Q18.82 6.90 18.82 7.01L18.82 7.01L18.82 13.19Q18.82 15.11 17.70 15.93Q16.59 16.76 14.91 16.76L14.91 16.76Q14.38 16.76 13.66 16.66L13.66 16.66Q13.43 16.62 13.44 16.38L13.44 16.38L13.51 14.83Q13.52 14.56 13.80 14.60L13.80 14.60Q14.36 14.71 14.78 14.71L14.78 14.71Q15.58 14.71 16.04 14.35Q16.49 13.99 16.49 13.20L16.49 13.20L16.34 13.34Q15.85 13.80 14.94 13.80L14.94 13.80Q14.01 13.80 13.24 13.40Q12.47 12.99 12.14 11.97L12.14 11.97Q11.91 11.30 11.91 10.32L11.91 10.32Q11.91 9.24 12.18 8.55L12.18 8.55Q12.50 7.69 13.21 7.17Q13.92 6.65 14.85 6.65L14.85 6.65Q15.83 6.65 16.38 7.22L16.38 7.22Q16.42 7.28 16.46 7.27Q16.49 7.25 16.49 7.18L16.49 7.18L16.49 7.01ZM16.37 11.35Q16.49 11.03 16.49 10.30L16.49 10.30Q16.49 9.93 16.46 9.71Q16.44 9.49 16.35 9.30L16.35 9.30Q16.24 8.99 15.99 8.81Q15.75 8.64 15.40 8.64L15.40 8.64Q14.74 8.64 14.46 9.30L14.46 9.30Q14.25 9.69 14.25 10.33L14.25 10.33Q14.25 11.02 14.43 11.34L14.43 11.34Q14.56 11.63 14.81 11.82Q15.06 12.00 15.41 12.00L15.41 12.00Q16.13 12.00 16.37 11.35L16.37 11.35ZM24.07 6.65Q25.16 6.65 25.85 7.34Q26.54 8.04 26.54 9.23L26.54 9.23L26.54 13.75Q26.54 13.86 26.47 13.93Q26.40 14 26.29 14L26.29 14L24.47 14Q24.36 14 24.29 13.93Q24.22 13.86 24.22 13.75L24.22 13.75L24.22 9.73Q24.22 9.24 23.96 8.94Q23.70 8.64 23.27 8.64L23.27 8.64Q22.83 8.64 22.57 8.94Q22.30 9.24 22.30 9.73L22.30 9.73L22.30 13.75Q22.30 13.86 22.23 13.93Q22.16 14 22.05 14L22.05 14L20.23 14Q20.12 14 20.05 13.93Q19.98 13.86 19.98 13.75L19.98 13.75L19.98 4.45Q19.98 4.34 20.05 4.27Q20.12 4.20 20.23 4.20L20.23 4.20L22.05 4.20Q22.16 4.20 22.23 4.27Q22.30 4.34 22.30 4.45L22.30 4.45L22.30 7.41Q22.30 7.48 22.34 7.49Q22.37 7.50 22.40 7.45L22.40 7.45Q22.97 6.65 24.07 6.65L24.07 6.65ZM32.14 8.37Q32.14 8.48 32.07 8.55Q32.00 8.62 31.89 8.62L31.89 8.62L30.73 8.62Q30.63 8.62 30.63 8.72L30.63 8.72L30.63 11.17Q30.63 11.97 31.28 11.97L31.28 11.97L31.71 11.97Q31.82 11.97 31.89 12.04Q31.96 12.11 31.96 12.22L31.96 12.22L31.96 13.69Q31.96 13.92 31.72 13.94L31.72 13.94Q31.08 13.97 30.81 13.97L30.81 13.97Q29.60 13.97 29.01 13.58Q28.42 13.19 28.41 12.12L28.41 12.12L28.41 8.72Q28.41 8.62 28.31 8.62L28.31 8.62L27.62 8.62Q27.51 8.62 27.44 8.55Q27.37 8.48 27.37 8.37L27.37 8.37L27.37 7.01Q27.37 6.90 27.44 6.83Q27.51 6.76 27.62 6.76L27.62 6.76L28.31 6.76Q28.41 6.76 28.41 6.66L28.41 6.66L28.41 5.08Q28.41 4.97 28.48 4.90Q28.55 4.83 28.66 4.83L28.66 4.83L30.38 4.83Q30.49 4.83 30.56 4.90Q30.63 4.97 30.63 5.08L30.63 5.08L30.63 6.66Q30.63 6.76 30.73 6.76L30.73 6.76L31.89 6.76Q32.00 6.76 32.07 6.83Q32.14 6.90 32.14 7.01L32.14 7.01L32.14 8.37ZM36.23 14Q36.12 14 36.05 13.93Q35.98 13.86 35.98 13.75L35.98 13.75L35.98 4.45Q35.98 4.34 36.05 4.27Q36.12 4.20 36.23 4.20L36.23 4.20L38.05 4.20Q38.16 4.20 38.23 4.27Q38.30 4.34 38.30 4.45L38.30 4.45L38.30 11.91Q38.30 12.01 38.40 12.01L38.40 12.01L42.76 12.01Q42.87 12.01 42.94 12.08Q43.01 12.15 43.01 12.26L43.01 12.26L43.01 13.75Q43.01 13.86 42.94 13.93Q42.87 14 42.76 14L42.76 14L36.23 14ZM45.18 6.29Q44.56 6.29 44.18 5.91Q43.81 5.54 43.81 4.94L43.81 4.94Q43.81 4.35 44.18 3.99Q44.56 3.63 45.18 3.63L45.18 3.63Q45.79 3.63 46.17 3.99Q46.55 4.35 46.55 4.94L46.55 4.94Q46.55 5.54 46.17 5.91Q45.79 6.29 45.18 6.29L45.18 6.29ZM44.27 14Q44.16 14 44.09 13.93Q44.02 13.86 44.02 13.75L44.02 13.75L44.02 7.01Q44.02 6.90 44.09 6.83Q44.16 6.76 44.27 6.76L44.27 6.76L46.09 6.76Q46.20 6.76 46.27 6.83Q46.34 6.90 46.34 7.01L46.34 7.01L46.34 13.75Q46.34 13.86 46.27 13.93Q46.20 14 46.09 14L46.09 14L44.27 14ZM51.70 6.65Q52.79 6.65 53.49 7.34Q54.18 8.04 54.18 9.23L54.18 9.23L54.18 13.75Q54.18 13.86 54.11 13.93Q54.04 14 53.93 14L53.93 14L52.11 14Q52.00 14 51.93 13.93Q51.86 13.86 51.86 13.75L51.86 13.75L51.86 9.73Q51.86 9.24 51.60 8.94Q51.34 8.64 50.90 8.64L50.90 8.64Q50.47 8.64 50.20 8.94Q49.94 9.24 49.94 9.73L49.94 9.73L49.94 13.75Q49.94 13.86 49.87 13.93Q49.80 14 49.69 14L49.69 14L47.87 14Q47.75 14 47.68 13.93Q47.61 13.86 47.61 13.75L47.61 13.75L47.61 7.01Q47.61 6.90 47.68 6.83Q47.75 6.76 47.87 6.76L47.87 6.76L49.69 6.76Q49.80 6.76 49.87 6.83Q49.94 6.90 49.94 7.01L49.94 7.01L49.94 7.41Q49.94 7.48 49.97 7.49Q50.01 7.50 50.04 7.45L50.04 7.45Q50.61 6.65 51.70 6.65L51.70 6.65ZM55.57 14Q55.45 14 55.38 13.93Q55.31 13.86 55.31 13.75L55.31 13.75L55.31 4.45Q55.31 4.34 55.38 4.27Q55.45 4.20 55.57 4.20L55.57 4.20L57.39 4.20Q57.50 4.20 57.57 4.27Q57.64 4.34 57.64 4.45L57.64 4.45L57.64 8.67Q57.64 8.74 57.68 8.75Q57.72 8.76 57.76 8.71L57.76 8.71L59.22 6.92Q59.33 6.76 59.53 6.76L59.53 6.76L61.60 6.76Q61.81 6.76 61.81 6.92L61.81 6.92Q61.81 7 61.75 7.07L61.75 7.07L60.02 9.31Q59.96 9.39 60.00 9.45L60.00 9.45L62.05 13.71L62.08 13.82Q62.08 14 61.85 14L61.85 14L59.96 14Q59.75 14 59.67 13.80L59.67 13.80L58.44 10.92Q58.42 10.86 58.37 10.86Q58.32 10.86 58.30 10.91L58.30 10.91L57.68 11.80Q57.64 11.84 57.64 11.93L57.64 11.93L57.64 13.75Q57.64 13.86 57.57 13.93Q57.50 14 57.39 14L57.39 14L55.57 14Z"></path></g><!----><!----></svg>